# xmcd
#
# Track frame offsets:
#	150
#	14018
#	28230
#	42600
#	55823
#	68536
#	85836
#	98729
#	116242
#	129783
#
# Disc length: 1942 seconds
#
# Revision: 1
# Processed by: cddbd v1.5.2PL0 Copyright (c) Steve Scherf et al.
# Submitted via: audiograbber 1.81.03
#
DISCID=8307940a
DTITLE=Amy`England - Nantucket To Nashville
DYEAR=2006
DGENRE=Country
TTITLE0=Cold Snap
TTITLE1=Catch And Release
TTITLE2=The`Wave
TTITLE3=Lassoo Your Love
TTITLE4=If It Weren't For You
TTITLE5=All Alone In Texas Tonight
TTITLE6=Darling
TTITLE7=Keeps Me Walking
TTITLE8=Can You Hear Me Now
TTITLE9=Sweet Sea Clover
EXTD=
EXTT0=
EXTT1=
EXTT2=
EXTT3=
EXTT4=
EXTT5=
EXTT6=
EXTT7=
EXTT8=
EXTT9=
PLAYORDER=
